<svg xmlns="http://www.w3.org/2000/svg" id="Layer_2" data-name="Layer 2" viewBox="0 0 1338.73 1460.85"><defs><style>.cls-1{fill:#007fff;}.cls-2{fill:#06c;}</style></defs><path class="cls-1" d="M1132.85,575.83v936.62a17.7,17.7,0,0,1-17.69,17.7H890v-.06c-149.44-2-280-55.79-385.7-161.6Q342.54,1206.87,342.61,977.32V797.15a17.7,17.7,0,0,0-17.7-17.69H155.79a17.7,17.7,0,0,1-17.69-17.7V575.83a17.69,17.69,0,0,1,17.69-17.69H326a17.67,17.67,0,0,0,17.68-17.68V415.59C343.7,174.92,461,69.3,661,69.3c78.74,0,127,4.79,155,8.28a17.68,17.68,0,0,1,15.46,17.55V252.58a17.7,17.7,0,0,1-17.7,17.69H695c-84.91,0-114.58,80.52-114.58,171.27v98.92a17.67,17.67,0,0,0,17.68,17.68h211a17.68,17.68,0,0,1,17.47,20.39L797.86,764.47a17.69,17.69,0,0,1-17.48,15H597.23a17.67,17.67,0,0,0-17.66,16.74c0,.32,0,.63,0,.95V977.32q0,130.83,92.55,223.34c55,55.08,122.74,85.57,198.66,91.47A17.76,17.76,0,0,0,890,1274.48V575.83a17.69,17.69,0,0,1,17.69-17.69h207.51A17.69,17.69,0,0,1,1132.85,575.83Z" transform="translate(-138.1 -69.3)"/><rect class="cls-2" x="1064.88" y="488.84" width="242.86" height="972.01" rx="16.35"/><circle class="cls-2" cx="1183.11" cy="156.9" r="155.61"/></svg>
