<svg id="Layer_2" data-name="Layer 2" xmlns="http://www.w3.org/2000/svg" viewBox="0 0 1062.06 1438.96"><defs><style>.cls-1{fill:#007fff;}.cls-2{fill:#06c;}</style></defs><path class="cls-1" d="M1058.14,495.66V1518.72a14,14,0,0,1-14,14H865.45v0c-118.56-1.56-222.1-44.26-306-128.2q-128.3-128.22-128.25-310.33V671.24a14,14,0,0,0-14-14H283a14,14,0,0,1-14-14V495.66a14,14,0,0,1,14-14H418.05a14,14,0,0,0,14-14V368.54c0-190.94,93-274.73,251.73-274.73,62.47,0,100.73,3.8,123,6.57A14,14,0,0,1,819,114.3V239.21a14,14,0,0,1-14,14H710.76c-67.36,0-90.9,63.88-90.9,135.87V467.6a14,14,0,0,0,14,14H801.3a14,14,0,0,1,13.86,16.17L792.38,645.32a14,14,0,0,1-13.87,11.89H633.21a14,14,0,0,0-14,13.28h0c0,.25,0,.5,0,.75v422.94q0,103.78,73.42,177.18c43.67,43.7,97.38,67.89,157.61,72.57a14.09,14.09,0,0,0,15.24-14V495.66a14,14,0,0,1,14-14h164.63A14,14,0,0,1,1058.14,495.66Z" transform="translate(-268.97 -93.81)"/><rect class="cls-2" x="844.81" y="387.82" width="192.67" height="1051.13" rx="5.76"/><circle class="cls-2" cx="938.61" cy="124.48" r="123.46"/></svg>